{"glyphs":{"0":{"ha":972,"x_min":0,"x_max":0,"o":"m 981 833 l 842 833 l 865 972 l 310 972 l 286 833 l 147 833 l 25 139 l 164 139 l 139 0 l 694 0 l 719 139 l 858 139 z m 376 556 l 425 833 l 703 833 l 678 694 l 539 694 l 515 556 z m 629 417 l 581 139 l 303 139 l 326 278 l 465 278 l 490 417 z "},"1":{"ha":972,"x_min":0,"x_max":0,"o":"m 833 0 l 858 139 l 581 139 l 726 972 l 449 972 l 425 833 l 286 833 l 261 694 l 400 694 l 303 139 l 25 139 l 0 0 z "},"2":{"ha":972,"x_min":0,"x_max":0,"o":"m 981 833 l 842 833 l 865 972 l 310 972 l 286 833 l 147 833 l 122 694 l 400 694 l 425 833 l 703 833 l 654 556 l 376 556 l 351 417 l 213 417 l 188 278 l 49 278 l 0 0 l 833 0 l 882 278 l 604 278 l 581 139 l 303 139 l 326 278 l 465 278 l 490 417 l 768 417 l 793 556 l 932 556 z "},"3":{"ha":972,"x_min":0,"x_max":0,"o":"m 981 833 l 842 833 l 865 972 l 310 972 l 286 833 l 147 833 l 122 694 l 400 694 l 425 833 l 703 833 l 654 556 l 376 556 l 351 417 l 629 417 l 581 139 l 303 139 l 326 278 l 49 278 l 25 139 l 164 139 l 139 0 l 694 0 l 719 139 l 858 139 l 907 417 l 768 417 l 793 556 l 932 556 z "},"4":{"ha":972,"x_min":0,"x_max":0,"o":"m 833 0 l 1004 972 l 588 972 l 564 833 l 425 833 l 400 694 l 261 694 l 238 556 l 99 556 l 49 278 l 604 278 l 556 0 z m 678 694 l 629 417 l 351 417 l 376 556 l 515 556 l 539 694 z "},"5":{"ha":972,"x_min":0,"x_max":0,"o":"m 400 694 l 425 833 l 981 833 l 1004 972 l 171 972 l 99 556 l 654 556 l 581 139 l 303 139 l 326 278 l 49 278 l 25 139 l 164 139 l 139 0 l 694 0 l 719 139 l 858 139 l 932 556 l 793 556 l 817 694 z "},"6":{"ha":972,"x_min":0,"x_max":0,"o":"m 907 417 l 768 417 l 793 556 l 376 556 l 400 694 l 539 694 l 564 833 l 842 833 l 865 972 l 449 972 l 425 833 l 286 833 l 261 694 l 122 694 l 25 139 l 164 139 l 139 0 l 694 0 l 719 139 l 858 139 z m 629 417 l 581 139 l 303 139 l 351 417 z "},"7":{"ha":972,"x_min":0,"x_max":0,"o":"m 932 556 l 1004 972 l 171 972 l 122 694 l 400 694 l 425 833 l 703 833 l 654 556 l 515 556 l 490 417 l 351 417 l 278 0 l 556 0 l 629 417 l 768 417 l 793 556 z "},"8":{"ha":972,"x_min":0,"x_max":0,"o":"m 981 833 l 842 833 l 865 972 l 310 972 l 286 833 l 147 833 l 99 556 l 238 556 l 213 417 l 74 417 l 25 139 l 164 139 l 139 0 l 694 0 l 719 139 l 858 139 l 907 417 l 768 417 l 793 556 l 932 556 z m 703 833 l 654 556 l 376 556 l 425 833 z m 351 417 l 629 417 l 581 139 l 303 139 z "},"9":{"ha":972,"x_min":0,"x_max":0,"o":"m 981 833 l 842 833 l 865 972 l 310 972 l 286 833 l 147 833 l 99 556 l 238 556 l 213 417 l 629 417 l 604 278 l 465 278 l 442 139 l 164 139 l 139 0 l 556 0 l 581 139 l 719 139 l 743 278 l 882 278 z m 703 833 l 654 556 l 376 556 l 425 833 z "},"A":{"ha":972,"x_min":0,"x_max":0,"o":"m 981 833 l 842 833 l 865 972 l 310 972 l 286 833 l 147 833 l 0 0 l 278 0 l 376 556 l 654 556 l 556 0 l 833 0 z m 703 833 l 678 694 l 400 694 l 425 833 z "},"Ä":{"ha":972,"x_min":0,"x_max":0,"o":"m 842 833 l 981 833 l 1004 972 l 726 972 l 703 833 l 425 833 l 449 972 l 171 972 l 147 833 l 286 833 l 261 694 l 122 694 l 0 0 l 278 0 l 351 417 l 629 417 l 556 0 l 833 0 l 956 694 l 817 694 z m 678 694 l 654 556 l 376 556 l 400 694 z "},"Å":{"ha":972,"x_min":0,"x_max":0,"o":"m 425 833 l 703 833 l 726 972 l 449 972 z m 932 556 l 793 556 l 817 694 l 261 694 l 238 556 l 99 556 l 0 0 l 278 0 l 326 278 l 604 278 l 556 0 l 833 0 z m 654 556 l 629 417 l 351 417 l 376 556 z "},"Æ":{"ha":972,"x_min":0,"x_max":0,"o":"m 678 694 l 703 833 l 981 833 l 1004 972 l 310 972 l 286 833 l 147 833 l 0 0 l 833 0 l 858 139 l 581 139 l 654 556 l 793 556 l 817 694 z "},"B":{"ha":972,"x_min":0,"x_max":0,"o":"m 817 694 l 956 694 l 981 833 l 842 833 l 865 972 l 171 972 l 0 0 l 694 0 l 719 139 l 858 139 l 932 556 l 793 556 z m 703 833 l 678 694 l 400 694 l 425 833 z m 376 556 l 654 556 l 581 139 l 303 139 z "},"C":{"ha":972,"x_min":0,"x_max":0,"o":"m 703 833 l 678 694 l 956 694 l 981 833 l 842 833 l 865 972 l 310 972 l 286 833 l 147 833 l 25 139 l 164 139 l 139 0 l 694 0 l 719 139 l 858 139 l 882 278 l 604 278 l 581 139 l 303 139 l 425 833 z "},"Ç":{"ha":972,"x_min":0,"x_max":0,"o":"m 703 833 l 678 694 l 956 694 l 981 833 l 842 833 l 865 972 l 310 972 l 286 833 l 147 833 l 25 139 l 164 139 l 139 0 l 556 0 l 531 -139 l 253 -139 l 229 -278 l 646 -278 l 669 -139 l 808 -139 l 882 278 l 604 278 l 581 139 l 303 139 l 425 833 z "},"D":{"ha":972,"x_min":0,"x_max":0,"o":"m 981 833 l 842 833 l 865 972 l 171 972 l 0 0 l 694 0 l 719 139 l 858 139 z m 703 833 l 581 139 l 303 139 l 425 833 z "},"E":{"ha":972,"x_min":0,"x_max":0,"o":"m 400 694 l 425 833 l 981 833 l 1004 972 l 171 972 l 0 0 l 833 0 l 858 139 l 303 139 l 376 556 l 654 556 l 678 694 z "},"F":{"ha":972,"x_min":0,"x_max":0,"o":"m 981 833 l 1004 972 l 171 972 l 0 0 l 278 0 l 376 556 l 654 556 l 678 694 l 400 694 l 425 833 z "},"G":{"ha":972,"x_min":0,"x_max":0,"o":"m 581 139 l 303 139 l 425 833 l 981 833 l 1004 972 l 310 972 l 286 833 l 147 833 l 25 139 l 164 139 l 139 0 l 694 0 l 719 139 l 858 139 l 956 694 l 539 694 l 515 556 l 654 556 z "},"H":{"ha":972,"x_min":0,"x_max":0,"o":"m 833 0 l 1004 972 l 726 972 l 678 694 l 400 694 l 449 972 l 171 972 l 0 0 l 278 0 l 376 556 l 654 556 l 556 0 z "},"I":{"ha":694,"x_min":0,"x_max":0,"o":"m 581 139 l 442 139 l 564 833 l 703 833 l 726 972 l 171 972 l 147 833 l 286 833 l 164 139 l 25 139 l 0 0 l 556 0 z "},"J":{"ha":972,"x_min":0,"x_max":0,"o":"m 858 139 l 1004 972 l 726 972 l 581 139 l 303 139 l 326 278 l 49 278 l 25 139 l 164 139 l 139 0 l 694 0 l 719 139 z "},"K":{"ha":972,"x_min":0,"x_max":0,"o":"m 678 694 l 817 694 l 842 833 l 981 833 l 1004 972 l 726 972 l 703 833 l 564 833 l 539 694 l 400 694 l 449 972 l 171 972 l 0 0 l 278 0 l 376 556 l 515 556 l 490 417 l 629 417 l 556 0 l 833 0 l 907 417 l 768 417 l 793 556 l 654 556 z "},"L":{"ha":972,"x_min":0,"x_max":0,"o":"m 833 0 l 858 139 l 303 139 l 449 972 l 171 972 l 0 0 z "},"M":{"ha":972,"x_min":0,"x_max":0,"o":"m 833 0 l 1004 972 l 726 972 l 703 833 l 425 833 l 449 972 l 171 972 l 0 0 l 278 0 l 376 556 l 654 556 l 556 0 z "},"N":{"ha":972,"x_min":0,"x_max":0,"o":"m 833 0 l 1004 972 l 726 972 l 678 694 l 539 694 l 564 833 l 425 833 l 449 972 l 171 972 l 0 0 l 278 0 l 376 556 l 515 556 l 490 417 l 629 417 l 556 0 z "},"Ñ":{"ha":972,"x_min":0,"x_max":0,"o":"m 981 833 l 1004 972 l 171 972 l 147 833 z m 956 694 l 678 694 l 629 417 l 490 417 l 515 556 l 376 556 l 400 694 l 122 694 l 0 0 l 278 0 l 326 278 l 465 278 l 442 139 l 581 139 l 556 0 l 833 0 z "},"O":{"ha":972,"x_min":0,"x_max":0,"o":"m 981 833 l 842 833 l 865 972 l 310 972 l 286 833 l 147 833 l 25 139 l 164 139 l 139 0 l 694 0 l 719 139 l 858 139 z m 703 833 l 581 139 l 303 139 l 425 833 z "},"Ø":{"ha":972,"x_min":0,"x_max":0,"o":"m 981 833 l 842 833 l 865 972 l 310 972 l 286 833 l 147 833 l 25 139 l 164 139 l 139 0 l 694 0 l 719 139 l 858 139 z m 376 556 l 425 833 l 703 833 l 678 694 l 539 694 l 515 556 z m 629 417 l 581 139 l 303 139 l 326 278 l 465 278 l 490 417 z "},"P":{"ha":972,"x_min":0,"x_max":0,"o":"m 981 833 l 842 833 l 865 972 l 171 972 l 0 0 l 278 0 l 376 556 l 793 556 l 817 694 l 956 694 z m 703 833 l 678 694 l 400 694 l 425 833 z "},"Q":{"ha":972,"x_min":0,"x_max":0,"o":"m 981 833 l 842 833 l 865 972 l 310 972 l 286 833 l 147 833 l 25 139 l 164 139 l 139 0 l 833 0 l 858 139 l 719 139 l 743 278 l 882 278 z m 604 278 l 465 278 l 442 139 l 303 139 l 425 833 l 703 833 z "},"R":{"ha":972,"x_min":0,"x_max":0,"o":"m 817 694 l 956 694 l 981 833 l 842 833 l 865 972 l 171 972 l 0 0 l 278 0 l 376 556 l 654 556 l 556 0 l 833 0 l 932 556 l 793 556 z m 703 833 l 678 694 l 400 694 l 425 833 z "},"S":{"ha":972,"x_min":0,"x_max":0,"o":"m 400 694 l 425 833 l 981 833 l 1004 972 l 310 972 l 286 833 l 147 833 l 122 694 l 261 694 l 238 556 l 654 556 l 581 139 l 303 139 l 326 278 l 49 278 l 25 139 l 164 139 l 139 0 l 694 0 l 719 139 l 858 139 l 932 556 l 793 556 l 817 694 z "},"T":{"ha":972,"x_min":0,"x_max":0,"o":"m 981 833 l 1004 972 l 171 972 l 147 833 l 425 833 l 278 0 l 556 0 l 703 833 z "},"U":{"ha":972,"x_min":0,"x_max":0,"o":"m 858 139 l 1004 972 l 726 972 l 581 139 l 303 139 l 449 972 l 171 972 l 25 139 l 164 139 l 139 0 l 694 0 l 719 139 z "},"Ü":{"ha":972,"x_min":0,"x_max":0,"o":"m 147 833 l 425 833 l 449 972 l 171 972 z m 981 833 l 1004 972 l 726 972 l 703 833 z m 956 694 l 678 694 l 581 139 l 303 139 l 400 694 l 122 694 l 25 139 l 164 139 l 139 0 l 694 0 l 719 139 l 858 139 z "},"V":{"ha":972,"x_min":0,"x_max":0,"o":"m 907 417 l 1004 972 l 726 972 l 629 417 l 351 417 l 449 972 l 171 972 l 74 417 l 213 417 l 164 139 l 303 139 l 278 0 l 556 0 l 581 139 l 719 139 l 768 417 z "},"W":{"ha":972,"x_min":0,"x_max":0,"o":"m 833 0 l 1004 972 l 726 972 l 629 417 l 351 417 l 449 972 l 171 972 l 0 0 l 278 0 l 303 139 l 581 139 l 556 0 z "},"X":{"ha":972,"x_min":0,"x_max":0,"o":"m 678 694 l 817 694 l 842 833 l 981 833 l 1004 972 l 726 972 l 703 833 l 425 833 l 449 972 l 171 972 l 147 833 l 286 833 l 261 694 l 400 694 l 376 556 l 238 556 l 213 417 l 74 417 l 0 0 l 278 0 l 351 417 l 629 417 l 556 0 l 833 0 l 907 417 l 768 417 l 793 556 l 654 556 z "},"Y":{"ha":972,"x_min":0,"x_max":0,"o":"m 981 833 l 1004 972 l 726 972 l 703 833 l 425 833 l 449 972 l 171 972 l 147 833 l 286 833 l 261 694 l 400 694 l 278 0 l 556 0 l 678 694 l 817 694 l 842 833 z "},"Z":{"ha":972,"x_min":0,"x_max":0,"o":"m 956 694 l 1004 972 l 171 972 l 147 833 l 703 833 l 678 694 l 539 694 l 515 556 l 376 556 l 351 417 l 213 417 l 188 278 l 49 278 l 0 0 l 833 0 l 858 139 l 303 139 l 326 278 l 465 278 l 490 417 l 629 417 l 654 556 l 793 556 l 817 694 z "},"a":{"ha":972,"x_min":0,"x_max":0,"o":"m 932 556 l 793 556 l 817 694 l 261 694 l 238 556 l 654 556 l 629 417 l 213 417 l 188 278 l 49 278 l 25 139 l 164 139 l 139 0 l 833 0 z m 604 278 l 581 139 l 303 139 l 326 278 z "},"á":{"ha":972,"x_min":0,"x_max":0,"o":"m 981 833 l 1004 972 l 588 972 l 564 833 z m 793 556 l 817 694 l 261 694 l 238 556 l 654 556 l 629 417 l 213 417 l 188 278 l 49 278 l 25 139 l 164 139 l 139 0 l 833 0 l 932 556 z m 604 278 l 581 139 l 303 139 l 326 278 z "},"â":{"ha":972,"x_min":0,"x_max":0,"o":"m 817 694 l 956 694 l 981 833 l 842 833 l 865 972 l 310 972 l 286 833 l 147 833 l 122 694 l 261 694 l 238 556 l 654 556 l 629 417 l 213 417 l 188 278 l 49 278 l 25 139 l 164 139 l 139 0 l 833 0 l 932 556 l 793 556 z m 703 833 l 678 694 l 400 694 l 425 833 z m 604 278 l 581 139 l 303 139 l 326 278 z "},"à":{"ha":972,"x_min":0,"x_max":0,"o":"m 171 972 l 147 833 l 564 833 l 588 972 z m 932 556 l 793 556 l 817 694 l 261 694 l 238 556 l 654 556 l 629 417 l 213 417 l 188 278 l 49 278 l 25 139 l 164 139 l 139 0 l 833 0 z m 604 278 l 581 139 l 303 139 l 326 278 z "},"å":{"ha":972,"x_min":0,"x_max":0,"o":"m 425 833 l 703 833 l 726 972 l 449 972 z m 932 556 l 793 556 l 817 694 l 261 694 l 238 556 l 654 556 l 629 417 l 213 417 l 188 278 l 49 278 l 25 139 l 164 139 l 139 0 l 833 0 z m 604 278 l 581 139 l 303 139 l 326 278 z "},"æ":{"ha":972,"x_min":0,"x_max":0,"o":"m 604 278 l 743 278 l 768 417 l 907 417 l 932 556 l 793 556 l 817 694 l 261 694 l 238 556 l 376 556 l 351 417 l 213 417 l 188 278 l 49 278 l 25 139 l 164 139 l 139 0 l 833 0 l 858 139 l 581 139 z "},"b":{"ha":972,"x_min":0,"x_max":0,"o":"m 932 556 l 793 556 l 817 694 l 400 694 l 449 972 l 171 972 l 0 0 l 694 0 l 719 139 l 858 139 z m 654 556 l 581 139 l 303 139 l 351 417 l 490 417 l 515 556 z "},"c":{"ha":972,"x_min":0,"x_max":0,"o":"m 654 556 l 629 417 l 907 417 l 932 556 l 793 556 l 817 694 l 261 694 l 238 556 l 99 556 l 25 139 l 164 139 l 139 0 l 694 0 l 719 139 l 858 139 l 882 278 l 604 278 l 581 139 l 303 139 l 376 556 z "},"ç":{"ha":972,"x_min":0,"x_max":0,"o":"m 654 556 l 629 417 l 907 417 l 932 556 l 793 556 l 817 694 l 261 694 l 238 556 l 99 556 l 25 139 l 164 139 l 139 0 l 556 0 l 531 -139 l 253 -139 l 229 -278 l 646 -278 l 669 -139 l 808 -139 l 882 278 l 604 278 l 581 139 l 303 139 l 376 556 z "},"d":{"ha":972,"x_min":0,"x_max":0,"o":"m 833 0 l 1004 972 l 726 972 l 678 694 l 261 694 l 238 556 l 99 556 l 25 139 l 164 139 l 139 0 z m 629 417 l 581 139 l 303 139 l 376 556 l 515 556 l 490 417 z "},"e":{"ha":972,"x_min":0,"x_max":0,"o":"m 932 556 l 793 556 l 817 694 l 261 694 l 238 556 l 99 556 l 25 139 l 164 139 l 139 0 l 833 0 l 858 139 l 303 139 l 326 278 l 882 278 z m 654 556 l 629 417 l 351 417 l 376 556 z "},"ê":{"ha":972,"x_min":0,"x_max":0,"o":"m 817 694 l 956 694 l 981 833 l 842 833 l 865 972 l 310 972 l 286 833 l 147 833 l 122 694 l 261 694 l 238 556 l 99 556 l 25 139 l 164 139 l 139 0 l 833 0 l 858 139 l 303 139 l 326 278 l 882 278 l 932 556 l 793 556 z m 703 833 l 678 694 l 400 694 l 425 833 z m 654 556 l 629 417 l 351 417 l 376 556 z "},"ë":{"ha":972,"x_min":0,"x_max":0,"o":"m 310 972 l 286 833 l 842 833 l 865 972 z m 932 556 l 793 556 l 817 694 l 261 694 l 238 556 l 99 556 l 25 139 l 164 139 l 139 0 l 833 0 l 858 139 l 303 139 l 326 278 l 882 278 z m 654 556 l 629 417 l 351 417 l 376 556 z "},"f":{"ha":833,"x_min":0,"x_max":0,"o":"m 539 694 l 564 833 l 842 833 l 865 972 l 449 972 l 425 833 l 286 833 l 261 694 l 122 694 l 99 556 l 238 556 l 139 0 l 417 0 l 515 556 l 793 556 l 817 694 z "},"g":{"ha":972,"x_min":0,"x_max":0,"o":"m 833 0 l 956 694 l 261 694 l 238 556 l 99 556 l 49 278 l 188 278 l 164 139 l 581 139 l 556 0 l 0 0 l -25 -139 l 669 -139 l 694 0 z m 654 556 l 604 278 l 326 278 l 376 556 z "},"h":{"ha":972,"x_min":0,"x_max":0,"o":"m 932 556 l 793 556 l 817 694 l 400 694 l 449 972 l 171 972 l 0 0 l 278 0 l 351 417 l 490 417 l 515 556 l 654 556 l 556 0 l 833 0 z "},"i":{"ha":417,"x_min":0,"x_max":0,"o":"m 425 833 l 449 972 l 171 972 l 147 833 z m 400 694 l 122 694 l 0 0 l 278 0 z "},"í":{"ha":556,"x_min":0,"x_max":0,"o":"m 564 833 l 588 972 l 171 972 l 147 833 z m 400 694 l 122 694 l 0 0 l 278 0 z "},"î":{"ha":694,"x_min":0,"x_max":0,"o":"m 703 833 l 726 972 l 171 972 l 147 833 z m 539 694 l 261 694 l 139 0 l 417 0 z "},"j":{"ha":972,"x_min":0,"x_max":0,"o":"m 981 833 l 1004 972 l 726 972 l 703 833 z m 956 694 l 678 694 l 556 0 l 278 0 l 303 139 l 25 139 l 0 0 l 139 0 l 114 -139 l 669 -139 l 694 0 l 833 0 z "},"k":{"ha":833,"x_min":0,"x_max":0,"o":"m 490 417 l 629 417 l 654 556 l 793 556 l 817 694 l 539 694 l 515 556 l 376 556 l 449 972 l 171 972 l 0 0 l 278 0 l 303 139 l 442 139 l 417 0 l 694 0 l 719 139 l 581 139 l 604 278 l 465 278 z "},"l":{"ha":556,"x_min":0,"x_max":0,"o":"m 442 139 l 303 139 l 449 972 l 171 972 l 25 139 l 164 139 l 139 0 l 417 0 z "},"m":{"ha":972,"x_min":0,"x_max":0,"o":"m 932 556 l 793 556 l 817 694 l 122 694 l 0 0 l 278 0 l 326 278 l 604 278 l 556 0 l 833 0 z "},"n":{"ha":972,"x_min":0,"x_max":0,"o":"m 932 556 l 793 556 l 817 694 l 122 694 l 0 0 l 278 0 l 376 556 l 654 556 l 556 0 l 833 0 z "},"ñ":{"ha":972,"x_min":0,"x_max":0,"o":"m 981 833 l 1004 972 l 171 972 l 147 833 z m 793 556 l 817 694 l 122 694 l 0 0 l 278 0 l 376 556 l 654 556 l 556 0 l 833 0 l 932 556 z "},"o":{"ha":972,"x_min":0,"x_max":0,"o":"m 932 556 l 793 556 l 817 694 l 261 694 l 238 556 l 99 556 l 25 139 l 164 139 l 139 0 l 694 0 l 719 139 l 858 139 z m 654 556 l 581 139 l 303 139 l 376 556 z "},"ó":{"ha":972,"x_min":0,"x_max":0,"o":"m 981 833 l 1004 972 l 588 972 l 564 833 z m 793 556 l 817 694 l 261 694 l 238 556 l 99 556 l 25 139 l 164 139 l 139 0 l 694 0 l 719 139 l 858 139 l 932 556 z m 376 556 l 654 556 l 581 139 l 303 139 z "},"ô":{"ha":972,"x_min":0,"x_max":0,"o":"m 817 694 l 956 694 l 981 833 l 842 833 l 865 972 l 310 972 l 286 833 l 147 833 l 122 694 l 261 694 l 238 556 l 99 556 l 25 139 l 164 139 l 139 0 l 694 0 l 719 139 l 858 139 l 932 556 l 793 556 z m 703 833 l 678 694 l 400 694 l 425 833 z m 376 556 l 654 556 l 581 139 l 303 139 z "},"ö":{"ha":972,"x_min":0,"x_max":0,"o":"m 310 972 l 286 833 l 842 833 l 865 972 z m 932 556 l 793 556 l 817 694 l 261 694 l 238 556 l 99 556 l 25 139 l 164 139 l 139 0 l 694 0 l 719 139 l 858 139 z m 654 556 l 581 139 l 303 139 l 376 556 z "},"ò":{"ha":972,"x_min":0,"x_max":0,"o":"m 171 972 l 147 833 l 564 833 l 588 972 z m 932 556 l 793 556 l 817 694 l 261 694 l 238 556 l 99 556 l 25 139 l 164 139 l 139 0 l 694 0 l 719 139 l 858 139 z m 654 556 l 581 139 l 303 139 l 376 556 z "},"ø":{"ha":972,"x_min":0,"x_max":0,"o":"m 932 556 l 793 556 l 817 694 l 261 694 l 238 556 l 99 556 l 25 139 l 164 139 l 139 0 l 278 0 l 253 -139 l 531 -139 l 556 0 l 694 0 l 719 139 l 858 139 z m 376 556 l 515 556 l 490 417 l 351 417 z m 581 139 l 442 139 l 465 278 l 604 278 z "},"p":{"ha":972,"x_min":0,"x_max":0,"o":"m 932 556 l 793 556 l 817 694 l 122 694 l -25 -139 l 253 -139 l 303 139 l 719 139 l 743 278 l 882 278 z m 654 556 l 604 278 l 326 278 l 351 417 l 490 417 l 515 556 z "},"q":{"ha":972,"x_min":0,"x_max":0,"o":"m 808 -139 l 956 694 l 261 694 l 238 556 l 99 556 l 49 278 l 188 278 l 164 139 l 581 139 l 531 -139 z m 629 417 l 604 278 l 326 278 l 376 556 l 515 556 l 490 417 z "},"r":{"ha":972,"x_min":0,"x_max":0,"o":"m 932 556 l 793 556 l 817 694 l 122 694 l 0 0 l 278 0 l 351 417 l 490 417 l 515 556 l 654 556 l 629 417 l 907 417 z "},"s":{"ha":972,"x_min":0,"x_max":0,"o":"m 351 417 l 376 556 l 932 556 l 956 694 l 261 694 l 238 556 l 99 556 l 74 417 l 213 417 l 188 278 l 604 278 l 581 139 l 25 139 l 0 0 l 694 0 l 719 139 l 858 139 l 882 278 l 743 278 l 768 417 z "},"t":{"ha":694,"x_min":0,"x_max":0,"o":"m 581 139 l 442 139 l 515 556 l 654 556 l 678 694 l 539 694 l 588 972 l 310 972 l 261 694 l 122 694 l 99 556 l 238 556 l 164 139 l 303 139 l 278 0 l 556 0 z "},"u":{"ha":972,"x_min":0,"x_max":0,"o":"m 833 0 l 956 694 l 678 694 l 581 139 l 303 139 l 400 694 l 122 694 l 25 139 l 164 139 l 139 0 z "},"ú":{"ha":972,"x_min":0,"x_max":0,"o":"m 981 833 l 1004 972 l 588 972 l 564 833 z m 956 694 l 678 694 l 581 139 l 303 139 l 400 694 l 122 694 l 25 139 l 164 139 l 139 0 l 833 0 z "},"û":{"ha":972,"x_min":0,"x_max":0,"o":"m 981 833 l 842 833 l 865 972 l 310 972 l 286 833 l 147 833 l 122 694 l 400 694 l 425 833 l 703 833 l 678 694 l 956 694 z m 932 556 l 654 556 l 581 139 l 303 139 l 376 556 l 99 556 l 25 139 l 164 139 l 139 0 l 833 0 z "},"ü":{"ha":972,"x_min":0,"x_max":0,"o":"m 310 972 l 286 833 l 842 833 l 865 972 z m 833 0 l 956 694 l 678 694 l 581 139 l 303 139 l 400 694 l 122 694 l 25 139 l 164 139 l 139 0 z "},"ù":{"ha":972,"x_min":0,"x_max":0,"o":"m 171 972 l 147 833 l 564 833 l 588 972 z m 833 0 l 956 694 l 678 694 l 581 139 l 303 139 l 400 694 l 122 694 l 25 139 l 164 139 l 139 0 z "},"v":{"ha":972,"x_min":0,"x_max":0,"o":"m 882 278 l 956 694 l 678 694 l 604 278 l 326 278 l 400 694 l 122 694 l 49 278 l 188 278 l 164 139 l 303 139 l 278 0 l 556 0 l 581 139 l 719 139 l 743 278 z "},"w":{"ha":972,"x_min":0,"x_max":0,"o":"m 833 0 l 956 694 l 678 694 l 629 417 l 351 417 l 400 694 l 122 694 l 25 139 l 164 139 l 139 0 z "},"x":{"ha":972,"x_min":0,"x_max":0,"o":"m 629 417 l 768 417 l 793 556 l 932 556 l 956 694 l 678 694 l 654 556 l 376 556 l 400 694 l 122 694 l 99 556 l 238 556 l 213 417 l 351 417 l 326 278 l 188 278 l 164 139 l 25 139 l 0 0 l 278 0 l 303 139 l 581 139 l 556 0 l 833 0 l 858 139 l 719 139 l 743 278 l 604 278 z "},"y":{"ha":972,"x_min":0,"x_max":0,"o":"m 833 0 l 956 694 l 678 694 l 604 278 l 326 278 l 400 694 l 122 694 l 49 278 l 188 278 l 164 139 l 581 139 l 556 0 l 0 0 l -25 -139 l 669 -139 l 694 0 z "},"ÿ":{"ha":972,"x_min":0,"x_max":0,"o":"m 310 972 l 286 833 l 842 833 l 865 972 z m 833 0 l 956 694 l 678 694 l 604 278 l 326 278 l 400 694 l 122 694 l 49 278 l 188 278 l 164 139 l 581 139 l 556 0 l 0 0 l -25 -139 l 669 -139 l 694 0 z "},"z":{"ha":972,"x_min":0,"x_max":0,"o":"m 465 278 l 604 278 l 629 417 l 768 417 l 793 556 l 932 556 l 956 694 l 122 694 l 99 556 l 515 556 l 490 417 l 351 417 l 326 278 l 188 278 l 164 139 l 25 139 l 0 0 l 833 0 l 858 139 l 442 139 z "},"Ω":{"ha":972,"x_min":0,"x_max":0,"o":"m 981 833 l 842 833 l 865 972 l 310 972 l 286 833 l 147 833 l 49 278 l 188 278 l 164 139 l 25 139 l 0 0 l 833 0 l 858 139 l 719 139 l 743 278 l 882 278 z m 703 833 l 604 278 l 326 278 l 425 833 z "},".":{"ha":417,"x_min":0,"x_max":0,"o":"m 278 0 l 326 278 l 49 278 l 0 0 z "},",":{"ha":417,"x_min":0,"x_max":0,"o":"m 253 -139 l 326 278 l 49 278 l -25 -139 z "},":":{"ha":417,"x_min":0,"x_max":0,"o":"m 376 556 l 425 833 l 147 833 l 99 556 z m 326 278 l 49 278 l 0 0 l 278 0 z "},";":{"ha":417,"x_min":0,"x_max":0,"o":"m 376 556 l 425 833 l 147 833 l 99 556 z m 326 278 l 49 278 l -25 -139 l 253 -139 z "},"!":{"ha":417,"x_min":0,"x_max":0,"o":"m 326 278 l 449 972 l 171 972 l 49 278 z m 303 139 l 25 139 l 0 0 l 278 0 z "},"¡":{"ha":417,"x_min":0,"x_max":0,"o":"m 400 694 l 425 833 l 147 833 l 122 694 z m 376 556 l 99 556 l 0 0 l 278 0 z "},"?":{"ha":972,"x_min":0,"x_max":0,"o":"m 981 833 l 842 833 l 865 972 l 310 972 l 286 833 l 147 833 l 122 694 l 400 694 l 425 833 l 703 833 l 654 556 l 515 556 l 490 417 l 351 417 l 326 278 l 604 278 l 629 417 l 768 417 l 793 556 l 932 556 z m 581 139 l 303 139 l 278 0 l 556 0 z "},"¿":{"ha":972,"x_min":0,"x_max":0,"o":"m 425 833 l 703 833 l 726 972 l 449 972 z m 858 139 l 882 278 l 604 278 l 581 139 l 303 139 l 351 417 l 490 417 l 515 556 l 654 556 l 678 694 l 400 694 l 376 556 l 238 556 l 213 417 l 74 417 l 25 139 l 164 139 l 139 0 l 694 0 l 719 139 z "},"·":{"ha":556,"x_min":0,"x_max":0,"o":"m 465 278 l 515 556 l 99 556 l 49 278 z "},"•":{"ha":556,"x_min":0,"x_max":0,"o":"m 465 278 l 515 556 l 99 556 l 49 278 z "},"*":{"ha":833,"x_min":0,"x_max":0,"o":"m 654 556 l 793 556 l 817 694 l 539 694 l 515 556 l 376 556 l 400 694 l 122 694 l 99 556 l 238 556 l 213 417 l 74 417 l 49 278 l 326 278 l 351 417 l 490 417 l 465 278 l 743 278 l 768 417 l 629 417 z "},"#":{"ha":972,"x_min":0,"x_max":0,"o":"m 793 556 l 932 556 l 956 694 l 817 694 l 865 972 l 310 972 l 261 694 l 122 694 l 99 556 l 238 556 l 213 417 l 74 417 l 49 278 l 188 278 l 139 0 l 694 0 l 743 278 l 882 278 l 907 417 l 768 417 z "},"/":{"ha":972,"x_min":0,"x_max":0,"o":"m 981 833 l 1004 972 l 726 972 l 703 833 l 564 833 l 515 556 l 376 556 l 351 417 l 213 417 l 164 139 l 25 139 l 0 0 l 278 0 l 303 139 l 442 139 l 490 417 l 629 417 l 654 556 l 793 556 l 842 833 z "},"\\":{"ha":972,"x_min":0,"x_max":0,"o":"m 858 139 l 719 139 l 768 417 l 629 417 l 654 556 l 515 556 l 564 833 l 425 833 l 449 972 l 171 972 l 147 833 l 286 833 l 238 556 l 376 556 l 351 417 l 490 417 l 442 139 l 581 139 l 556 0 l 833 0 z "},"(":{"ha":833,"x_min":0,"x_max":0,"o":"m 465 278 l 326 278 l 400 694 l 539 694 l 564 833 l 842 833 l 865 972 l 449 972 l 425 833 l 286 833 l 261 694 l 122 694 l 49 278 l 188 278 l 164 139 l 303 139 l 278 0 l 694 0 l 719 139 l 442 139 z "},")":{"ha":833,"x_min":0,"x_max":0,"o":"m 817 694 l 678 694 l 703 833 l 564 833 l 588 972 l 171 972 l 147 833 l 425 833 l 400 694 l 539 694 l 465 278 l 326 278 l 303 139 l 25 139 l 0 0 l 417 0 l 442 139 l 581 139 l 604 278 l 743 278 z "},"{":{"ha":833,"x_min":0,"x_max":0,"o":"m 376 556 l 515 556 l 564 833 l 842 833 l 865 972 l 449 972 l 425 833 l 286 833 l 238 556 l 99 556 l 74 417 l 213 417 l 164 139 l 303 139 l 278 0 l 694 0 l 719 139 l 442 139 l 490 417 l 351 417 z "},"}":{"ha":833,"x_min":0,"x_max":0,"o":"m 793 556 l 654 556 l 703 833 l 564 833 l 588 972 l 171 972 l 147 833 l 425 833 l 376 556 l 515 556 l 490 417 l 351 417 l 303 139 l 25 139 l 0 0 l 417 0 l 442 139 l 581 139 l 629 417 l 768 417 z "},"[":{"ha":694,"x_min":0,"x_max":0,"o":"m 581 139 l 303 139 l 425 833 l 703 833 l 726 972 l 171 972 l 0 0 l 556 0 z "},"]":{"ha":694,"x_min":0,"x_max":0,"o":"m 556 0 l 726 972 l 171 972 l 147 833 l 425 833 l 303 139 l 25 139 l 0 0 z "},"-":{"ha":972,"x_min":0,"x_max":0,"o":"m 907 417 l 932 556 l 99 556 l 74 417 z "},"­":{"ha":556,"x_min":0,"x_max":0,"o":"m 490 417 l 515 556 l 99 556 l 74 417 z "},"—":{"ha":972,"x_min":0,"x_max":0,"o":"m 907 417 l 932 556 l 99 556 l 74 417 z "},"_":{"ha":972,"x_min":0,"x_max":0,"o":"m 808 -139 l 833 0 l 0 0 l -25 -139 z "},"«":{"ha":972,"x_min":0,"x_max":0,"o":"m 629 417 l 768 417 l 793 556 l 932 556 l 956 694 l 400 694 l 376 556 l 238 556 l 213 417 l 74 417 l 49 278 l 188 278 l 164 139 l 303 139 l 278 0 l 833 0 l 858 139 l 719 139 l 743 278 l 604 278 z "},"»":{"ha":972,"x_min":0,"x_max":0,"o":"m 907 417 l 768 417 l 793 556 l 654 556 l 678 694 l 122 694 l 99 556 l 238 556 l 213 417 l 351 417 l 326 278 l 188 278 l 164 139 l 25 139 l 0 0 l 556 0 l 581 139 l 719 139 l 743 278 l 882 278 z "},"\"":{"ha":833,"x_min":0,"x_max":0,"o":"m 817 694 l 865 972 l 310 972 l 261 694 l 122 694 l 99 556 l 654 556 l 678 694 z "},"'":{"ha":556,"x_min":0,"x_max":0,"o":"m 539 694 l 588 972 l 310 972 l 261 694 l 122 694 l 99 556 l 376 556 l 400 694 z "}," ":{"ha":556,"x_min":0,"x_max":0,"o":""},"¢":{"ha":833,"x_min":0,"x_max":0,"o":"m 326 278 l 351 417 l 768 417 l 793 556 l 654 556 l 678 694 l 400 694 l 376 556 l 238 556 l 213 417 l 74 417 l 49 278 l 188 278 l 164 139 l 303 139 l 278 0 l 556 0 l 581 139 l 719 139 l 743 278 z "},"¤":{"ha":694,"x_min":0,"x_max":0,"o":"m 515 556 l 654 556 l 678 694 l 122 694 l 99 556 l 238 556 l 213 417 l 74 417 l 49 278 l 604 278 l 629 417 l 490 417 z "},"$":{"ha":972,"x_min":0,"x_max":0,"o":"m 376 556 l 400 694 l 956 694 l 981 833 l 703 833 l 726 972 l 449 972 l 425 833 l 286 833 l 261 694 l 122 694 l 99 556 l 238 556 l 213 417 l 629 417 l 604 278 l 49 278 l 25 139 l 303 139 l 278 0 l 556 0 l 581 139 l 719 139 l 743 278 l 882 278 l 907 417 l 768 417 l 793 556 z "},"ƒ":{"ha":972,"x_min":0,"x_max":0,"o":"m 981 833 l 842 833 l 865 972 l 588 972 l 564 833 l 425 833 l 376 556 l 238 556 l 213 417 l 351 417 l 326 278 l 49 278 l 25 139 l 164 139 l 139 0 l 417 0 l 442 139 l 581 139 l 629 417 l 768 417 l 793 556 l 654 556 l 678 694 l 956 694 z "},"£":{"ha":972,"x_min":0,"x_max":0,"o":"m 703 833 l 678 694 l 956 694 l 981 833 l 842 833 l 865 972 l 449 972 l 425 833 l 286 833 l 238 556 l 99 556 l 74 417 l 213 417 l 164 139 l 25 139 l 0 0 l 833 0 l 858 139 l 442 139 l 490 417 l 768 417 l 793 556 l 515 556 l 564 833 z "},"+":{"ha":972,"x_min":0,"x_max":0,"o":"m 907 417 l 932 556 l 654 556 l 703 833 l 425 833 l 376 556 l 99 556 l 74 417 l 351 417 l 303 139 l 581 139 l 629 417 z "},"÷":{"ha":972,"x_min":0,"x_max":0,"o":"m 400 694 l 678 694 l 703 833 l 425 833 z m 907 417 l 932 556 l 99 556 l 74 417 z m 604 278 l 326 278 l 303 139 l 581 139 z "},"=":{"ha":972,"x_min":0,"x_max":0,"o":"m 932 556 l 956 694 l 122 694 l 99 556 z m 858 139 l 882 278 l 49 278 l 25 139 z "},">":{"ha":833,"x_min":0,"x_max":0,"o":"m 793 556 l 654 556 l 678 694 l 539 694 l 564 833 l 425 833 l 449 972 l 171 972 l 147 833 l 286 833 l 261 694 l 400 694 l 376 556 l 515 556 l 490 417 l 351 417 l 326 278 l 188 278 l 164 139 l 25 139 l 0 0 l 278 0 l 303 139 l 442 139 l 465 278 l 604 278 l 629 417 l 768 417 z "},"<":{"ha":833,"x_min":0,"x_max":0,"o":"m 376 556 l 515 556 l 539 694 l 678 694 l 703 833 l 842 833 l 865 972 l 588 972 l 564 833 l 425 833 l 400 694 l 261 694 l 238 556 l 99 556 l 74 417 l 213 417 l 188 278 l 326 278 l 303 139 l 442 139 l 417 0 l 694 0 l 719 139 l 581 139 l 604 278 l 465 278 l 490 417 l 351 417 z "},"±":{"ha":972,"x_min":0,"x_max":0,"o":"m 99 556 l 376 556 l 326 278 l 604 278 l 654 556 l 793 556 l 817 694 l 678 694 l 726 972 l 449 972 l 400 694 l 122 694 z m 833 0 l 858 139 l 25 139 l 0 0 z "},"≈":{"ha":1111,"x_min":0,"x_max":0,"o":"m 1094 694 l 1119 833 l 842 833 l 817 694 l 678 694 l 703 833 l 286 833 l 261 694 l 122 694 l 99 556 l 376 556 l 400 694 l 539 694 l 515 556 l 932 556 l 956 694 z m 1046 417 l 768 417 l 743 278 l 604 278 l 629 417 l 213 417 l 188 278 l 49 278 l 25 139 l 303 139 l 326 278 l 465 278 l 442 139 l 858 139 l 882 278 l 1021 278 z "},"~":{"ha":1111,"x_min":0,"x_max":0,"o":"m 1119 833 l 1143 972 l 865 972 l 842 833 l 703 833 l 726 972 l 310 972 l 286 833 l 147 833 l 122 694 l 400 694 l 425 833 l 564 833 l 539 694 l 956 694 l 981 833 z "},"¬":{"ha":972,"x_min":0,"x_max":0,"o":"m 858 139 l 907 417 l 74 417 l 49 278 l 604 278 l 581 139 z "},"∞":{"ha":1250,"x_min":0,"x_max":0,"o":"m 1210 556 l 1071 556 l 1094 694 l 261 694 l 238 556 l 99 556 l 49 278 l 188 278 l 164 139 l 997 139 l 1021 278 l 1160 278 z m 465 278 l 326 278 l 376 556 l 515 556 z m 882 278 l 743 278 l 793 556 l 932 556 z "},"∑":{"ha":972,"x_min":0,"x_max":0,"o":"m 956 694 l 1004 972 l 171 972 l 122 694 l 261 694 l 238 556 l 376 556 l 351 417 l 213 417 l 188 278 l 49 278 l 0 0 l 833 0 l 882 278 l 604 278 l 581 139 l 303 139 l 326 278 l 465 278 l 490 417 l 629 417 l 654 556 l 515 556 l 539 694 l 400 694 l 425 833 l 703 833 l 678 694 z "},"√":{"ha":1250,"x_min":0,"x_max":0,"o":"m 1258 833 l 1282 972 l 726 972 l 604 278 l 465 278 l 515 556 l 99 556 l 74 417 l 213 417 l 188 278 l 326 278 l 303 139 l 442 139 l 417 0 l 833 0 l 981 833 z "},"%":{"ha":972,"x_min":0,"x_max":0,"o":"m 981 833 l 1004 972 l 726 972 l 703 833 l 564 833 l 515 556 l 376 556 l 351 417 l 213 417 l 164 139 l 25 139 l 0 0 l 278 0 l 303 139 l 442 139 l 490 417 l 629 417 l 654 556 l 793 556 l 842 833 z m 122 694 l 400 694 l 449 972 l 171 972 z m 882 278 l 604 278 l 556 0 l 833 0 z "},"☺":{"ha":1250,"x_min":0,"x_max":0,"o":"m 310 972 l 286 833 l 1119 833 l 1143 972 z m 0 0 l 139 0 l 286 833 l 147 833 z m 1258 833 l 1119 833 l 972 0 l 1111 0 z m 515 556 l 539 694 l 400 694 l 376 556 z m 817 694 l 793 556 l 932 556 l 956 694 z m 882 278 l 907 417 l 351 417 l 326 278 l 465 278 l 442 139 l 719 139 l 743 278 z m 947 -139 l 972 0 l 139 0 l 114 -139 z "},"☻":{"ha":1250,"x_min":0,"x_max":0,"o":"m 1258 833 l 1119 833 l 1143 972 l 310 972 l 286 833 l 147 833 l 0 0 l 139 0 l 114 -139 l 947 -139 l 972 0 l 1111 0 z m 376 556 l 400 694 l 539 694 l 515 556 z m 956 694 l 932 556 l 793 556 l 817 694 z m 907 417 l 882 278 l 743 278 l 719 139 l 442 139 l 465 278 l 326 278 l 351 417 z "},"☼":{"ha":1250,"x_min":0,"x_max":0,"o":"m 956 694 l 817 694 l 865 972 l 588 972 l 539 694 l 400 694 l 376 556 l 99 556 l 49 278 l 326 278 l 303 139 l 442 139 l 392 -139 l 669 -139 l 719 139 l 858 139 l 882 278 l 1160 278 l 1210 556 l 932 556 z m 310 972 l 171 972 l 147 833 l 286 833 z m 1258 833 l 1282 972 l 1143 972 l 1119 833 z m 425 833 l 286 833 l 261 694 l 400 694 z m 1094 694 l 1119 833 l 981 833 l 956 694 z m 515 556 l 793 556 l 743 278 l 465 278 z m 164 139 l 139 0 l 278 0 l 303 139 z m 833 0 l 972 0 l 997 139 l 858 139 z m 0 0 l -25 -139 l 114 -139 l 139 0 z m 947 -139 l 1086 -139 l 1111 0 l 972 0 z "},"♀":{"ha":972,"x_min":0,"x_max":0,"o":"m 981 833 l 842 833 l 865 972 l 310 972 l 286 833 l 147 833 l 74 417 l 213 417 l 188 278 l 326 278 l 303 139 l 164 139 l 139 0 l 278 0 l 253 -139 l 531 -139 l 556 0 l 694 0 l 719 139 l 581 139 l 604 278 l 743 278 l 768 417 l 907 417 z m 703 833 l 629 417 l 351 417 l 425 833 z "},"♂":{"ha":1250,"x_min":0,"x_max":0,"o":"m 1185 417 l 1282 972 l 726 972 l 703 833 l 842 833 l 817 694 l 678 694 l 654 556 l 238 556 l 213 417 l 74 417 l 0 0 l 139 0 l 114 -139 l 669 -139 l 694 0 l 833 0 l 932 556 l 1071 556 l 1046 417 z m 629 417 l 556 0 l 278 0 l 351 417 z "},"♠":{"ha":1111,"x_min":0,"x_max":0,"o":"m 1046 417 l 907 417 l 932 556 l 793 556 l 817 694 l 678 694 l 726 972 l 588 972 l 539 694 l 400 694 l 376 556 l 238 556 l 213 417 l 74 417 l 49 278 l 188 278 l 164 139 l 303 139 l 278 0 l 139 0 l 114 -139 l 808 -139 l 833 0 l 694 0 l 719 139 l 858 139 l 882 278 l 1021 278 z "},"♣":{"ha":1111,"x_min":0,"x_max":0,"o":"m 1021 278 l 1071 556 l 793 556 l 817 694 l 956 694 l 981 833 l 842 833 l 865 972 l 449 972 l 425 833 l 286 833 l 261 694 l 400 694 l 376 556 l 99 556 l 49 278 l 188 278 l 164 139 l 303 139 l 278 0 l 139 0 l 114 -139 l 808 -139 l 833 0 l 694 0 l 719 139 l 858 139 l 882 278 z "},"♥":{"ha":1111,"x_min":0,"x_max":0,"o":"m 1119 833 l 981 833 l 1004 972 l 726 972 l 703 833 l 564 833 l 588 972 l 310 972 l 286 833 l 147 833 l 74 417 l 213 417 l 188 278 l 326 278 l 303 139 l 442 139 l 417 0 l 556 0 l 581 139 l 719 139 l 743 278 l 882 278 l 907 417 l 1046 417 z "},"♦":{"ha":1111,"x_min":0,"x_max":0,"o":"m 1071 556 l 932 556 l 956 694 l 817 694 l 842 833 l 703 833 l 726 972 l 588 972 l 564 833 l 425 833 l 400 694 l 261 694 l 238 556 l 99 556 l 74 417 l 213 417 l 188 278 l 326 278 l 303 139 l 442 139 l 417 0 l 556 0 l 581 139 l 719 139 l 743 278 l 882 278 l 907 417 l 1046 417 z "},"@":{"ha":1111,"x_min":0,"x_max":0,"o":"m 1119 833 l 981 833 l 1004 972 l 310 972 l 286 833 l 147 833 l 25 139 l 164 139 l 139 0 l 833 0 l 858 139 l 303 139 l 326 278 l 1021 278 z m 400 694 l 425 833 l 842 833 l 817 694 z "},"&":{"ha":972,"x_min":0,"x_max":0,"o":"m 719 139 l 768 417 l 907 417 l 932 556 l 654 556 l 678 694 l 817 694 l 842 833 l 703 833 l 726 972 l 449 972 l 425 833 l 286 833 l 261 694 l 400 694 l 376 556 l 238 556 l 213 417 l 74 417 l 25 139 l 164 139 l 139 0 l 833 0 l 858 139 z m 442 139 l 303 139 l 326 278 l 465 278 z "},"¶":{"ha":1250,"x_min":0,"x_max":0,"o":"m 1111 0 l 1282 972 l 310 972 l 286 833 l 147 833 l 99 556 l 238 556 l 213 417 l 490 417 l 417 0 l 694 0 l 842 833 l 981 833 l 833 0 z m 515 556 l 376 556 l 425 833 l 564 833 z "},"§":{"ha":972,"x_min":0,"x_max":0,"o":"m 400 694 l 425 833 l 981 833 l 1004 972 l 310 972 l 286 833 l 147 833 l 122 694 l 261 694 l 238 556 l 99 556 l 74 417 l 213 417 l 188 278 l 604 278 l 581 139 l 25 139 l 0 0 l 694 0 l 719 139 l 858 139 l 882 278 l 743 278 l 768 417 l 907 417 l 932 556 l 793 556 l 817 694 z m 351 417 l 376 556 l 654 556 l 629 417 z "},"®":{"ha":972,"x_min":0,"x_max":0,"o":"m 238 556 l 376 556 l 326 278 l 465 278 l 490 417 l 629 417 l 654 556 l 793 556 l 817 694 l 261 694 z m 581 139 l 604 278 l 465 278 l 442 139 l 303 139 l 326 278 l 188 278 l 238 556 l 99 556 l 25 139 l 164 139 l 139 0 l 694 0 l 719 139 z m 932 556 l 793 556 l 719 139 l 858 139 z "},"|":{"ha":417,"x_min":0,"x_max":0,"o":"m 376 556 l 449 972 l 171 972 l 99 556 z m 351 417 l 74 417 l 0 0 l 278 0 z "},"^":{"ha":972,"x_min":0,"x_max":0,"o":"m 956 694 l 817 694 l 842 833 l 703 833 l 726 972 l 449 972 l 425 833 l 286 833 l 261 694 l 122 694 l 99 556 l 376 556 l 400 694 l 678 694 l 654 556 l 932 556 z "},"⌂":{"ha":972,"x_min":0,"x_max":0,"o":"m 907 417 l 768 417 l 793 556 l 654 556 l 678 694 l 400 694 l 376 556 l 238 556 l 213 417 l 74 417 l 0 0 l 833 0 z m 629 417 l 581 139 l 303 139 l 351 417 z "},"¸":{"ha":694,"x_min":0,"x_max":0,"o":"m 531 -139 l 556 0 l 278 0 l 253 -139 l -25 -139 l -49 -278 l 368 -278 l 392 -139 z "}}}
